<?xml version="1.0" encoding="utf-8"?>
<!-- Generator: Adobe Illustrator 16.0.4, SVG Export Plug-In . SVG Version: 6.00 Build 0)  -->
<!DOCTYPE svg PUBLIC "-//W3C//DTD SVG 1.1//EN" "http://www.w3.org/Graphics/SVG/1.1/DTD/svg11.dtd">
<svg version="1.1" id="Layer_1" xmlns="http://www.w3.org/2000/svg" xmlns:xlink="http://www.w3.org/1999/xlink" x="0px" y="0px"
	 width="1024px" height="351.5px" viewBox="0 0 1024 351.5" enable-background="new 0 0 1024 351.5" xml:space="preserve">
<path d="M851.489,73.501l-20.162,31.205l-16.732-26.604l-42.081,5.188l34.134,51.869l-38.902,56.806L738.548,87.723l-38.567,4.769
	l-61.992,117.961L653.884,97.93l-42.75,5.271l-30.871,45.344l-18.991-39.153l-38.399,4.686l-16.983,120.22l38.065-4.686
	l8.366-59.565l20.748,39.487l0.669-0.084l32.795-46.097l-8.366,59.566l35.556-4.351l3.179-0.418l39.237-4.853l8.198-16.899
	l40.742-5.02l3.933,15.394l31.121-3.849l10.29-1.255l34.803-4.267l23.676-36.309l18.238,31.205l42.081-5.187l-35.891-56.136
	l43.253-62.996L851.489,73.501z M698.308,166.53l14.64-30.452l6.609,27.859L698.308,166.53z"/>
<polygon points="360.822,133.652 352.707,191.043 319.411,138.756 283.019,143.189 266.035,263.493 304.603,258.725 
	313.136,198.907 347.855,253.37 382.407,249.104 399.39,128.884 "/>
<path d="M147.489,234.045l4.351-30.453c1.255-9.704,9.454-12.298,18.07-13.302l45.679-5.605l4.769-33.715l-80.314,9.872
	c-11.21,1.339-19.911,8.533-22.504,18.991l-11.629,82.572c-1.087,10.708,9.872,19.576,24.429,17.819c0,0,0,0,0.084,0l72.533-8.868
	l5.02-33.631l-49.276,6.023C152.174,244.586,146.317,242.494,147.489,234.045z"/>
<polygon points="232.153,149.548 215.17,269.684 254.072,264.915 271.055,144.779 "/>
<polygon points="496.185,190.123 500.2,161.093 443.312,167.953 444.984,155.738 505.973,148.209 510.657,115.247 411.437,127.462 
	394.454,247.681 493.758,235.551 498.359,202.588 437.371,210.117 439.295,197.066 "/>
<path fill="#FFFFFF" d="M35.886,122.776L4.43,346.483l950.713-116.706L986.6,6.071L35.886,122.776z M202.956,271.356l-72.533,8.868
	c-0.084,0-0.084,0-0.084,0c-14.557,1.757-25.516-7.111-24.429-17.819l11.629-82.572c2.593-10.458,11.294-17.652,22.504-18.991
	l80.314-9.872l-4.769,33.715l-45.679,5.605c-8.617,1.004-16.815,3.598-18.07,13.302l-4.351,30.453
	c-1.171,8.449,4.685,10.541,11.21,9.704l49.276-6.023L202.956,271.356z M215.17,269.684l16.983-120.136l38.902-4.769
	l-16.983,120.136L215.17,269.684z M347.855,253.37l-34.719-54.463l-8.533,59.817l-38.567,4.769l16.983-120.304l36.393-4.434
	l33.296,52.287l8.115-57.391l38.567-4.769l-16.983,120.22L347.855,253.37z M498.359,202.588l-4.602,32.963l-99.304,12.13
	l16.983-120.219l99.221-12.215l-4.685,32.962l-60.988,7.529l-1.674,12.215l56.89-6.86l-4.016,29.03l-56.89,6.943l-1.924,13.051
	L498.359,202.588z M889.22,187.111l-42.081,5.187L828.9,161.093l-23.676,36.309l-34.803,4.267l-10.29,1.255l-31.121,3.849
	l-3.933-15.394l-40.742,5.02l-8.198,16.899l-39.237,4.853l-3.179,0.418l-35.556,4.351l8.366-59.566l-32.795,46.097l-0.669,0.084
	l-20.748-39.487l-8.366,59.565l-38.065,4.685l16.983-120.219l38.399-4.686l18.991,39.153l30.871-45.344l42.75-5.271l-15.896,112.522
	L699.98,92.491l38.567-4.769l29.197,104.24l38.902-56.805l-34.134-51.869l42.081-5.188l16.732,26.604l20.162-31.205l45.093-5.522
	l-43.253,62.996L889.22,187.111z"/>
<polygon fill="#FFFFFF" points="698.308,166.53 719.557,163.938 712.947,136.078 "/>
<path fill="#FFFFFF" d="M1019.813,14.771c0.502,4.267-0.586,8.533-3.18,11.879c-2.593,3.263-6.106,5.438-10.374,5.94
	c-7.612,0.92-13.218-3.932-14.055-10.792c-0.502-4.267,0.586-8.533,3.263-11.88c2.51-3.263,6.023-5.438,10.374-5.94
	C1013.371,2.975,1018.977,7.911,1019.813,14.771z M1015.212,25.898c2.51-3.179,3.514-6.944,3.012-10.792
	c-0.753-6.023-5.354-10.458-12.382-9.621c-3.765,0.502-6.943,2.51-8.951,5.104c-2.51,3.179-3.514,6.944-3.012,10.792
	c0.753,6.107,5.354,10.541,12.465,9.621C1010.025,30.583,1013.204,28.492,1015.212,25.898z M1003.248,25.814l-4.601,0.585
	l2.175-15.394l5.939-0.753c4.435-0.585,6.442,1.255,6.777,3.932c0.334,2.677-1.088,4.602-3.682,5.772l2.677,4.685l-4.769,0.586
	l-2.342-4.1l-1.674,0.251L1003.248,25.814z M1006.512,17.532c1.254-0.167,1.924-0.586,2.258-1.004
	c0.252-0.335,0.419-0.753,0.335-1.171c-0.167-1.087-0.92-1.255-2.092-1.171l-2.091,0.251l-0.502,3.347L1006.512,17.532z"/>
</svg>
